<svg xmlns="http://www.w3.org/2000/svg" width="32" height="32" viewBox="182.087 -140.5 32 32" enable-background="new 182.087 -140.5 32 32"><path fill="#4D4D4D" d="M207.337-124.662c-.323 0-.586-.263-.586-.586 0-.324.263-.587.586-.587.323 0 .586.263.586.587 0 .323-.263.586-.586.586z"/><g fill="#4D4D4D"><polygon points="193.195,-118.407 191.745,-114.752 204.429,-114.752 202.979,-118.407"/><path d="M205.363-127.695v3.812h-14.552v-3.812h-2.752v10.594h3.115l.518-1.307h-.882v-1.03h14.552v1.03h-.882l.52 1.308h3.114v-10.594h-2.751zm-1.664-3.686l-1.434-1.437-1.433-1.43h-8.356v9.228h11.224v-6.361z"/></g></svg>